<?xml version="1.0" encoding="utf-8"?>
<!-- Generator: Adobe Illustrator 17.1.0, SVG Export Plug-In . SVG Version: 6.00 Build 0)  -->
<!DOCTYPE svg PUBLIC "-//W3C//DTD SVG 1.1//EN" "http://www.w3.org/Graphics/SVG/1.1/DTD/svg11.dtd">
<svg version="1.1" id="Layer_1" xmlns="http://www.w3.org/2000/svg" xmlns:xlink="http://www.w3.org/1999/xlink" x="0px" y="0px"
	 viewBox="25.5 54.9 586.5 586.4" enable-background="new 25.5 54.9 586.5 586.4" xml:space="preserve">
<g>
	<path fill="#4C0707" d="M200.5,419.9c-26.4,0-52.9,0-79.4,0c-6.6,0-9.2-1.3-9.2-9.2c0-31.7,0-62.2,0-93.9c0-7.9,2.6-9.2,9.2-9.2
		c25.1,0,50.2,0,75.3,0c7.9,0,10.5-1.3,10.5-10.5c0-34.3-1.3-68.8,2.6-101.9c6.6-60.9,50.2-103.2,111.1-112.4
		c34.3-5.3,67.4-1.3,101.9,0c14.6,0,14.6,1.3,14.6,14.6c0,25.1,0,50.2,0,75.3c0,13.3,0,13.3-13.3,13.3c-22.5,0-43.6,0-64.8,1.3
		c-21.2,2.6-34.3,14.6-35.7,35.7c-1.3,27.7-1.3,55.5-1.3,83.3c0,0,0,0,1.3,1.3c2.6,0,6.6,0,9.2,0c30.4,0,59.5,0,89.9,0
		c6.6,0,9.2,1.3,7.9,7.9c-3.9,30.4-7.9,62.2-11.8,93.9c0,7.9-3.9,9.2-10.5,9.2c-26.4,0-52.9,0-79.4,0c-2.6,0-5.3,1.3-6.6,1.3v221.5
		C482.5,639.5,612,508.9,612,348.1c0-161.9-131.3-293.2-293.2-293.2S25.5,186.1,25.5,348.1c0,122.9,75.6,228.1,182.9,271.7
		c0-64.1,0-128.5,0-192.2C208.4,421.2,205.7,419.9,200.5,419.9z"/>
</g>
</svg>
