<?xml version="1.0" encoding="utf-8"?>
<!-- Generator: Adobe Illustrator 17.1.0, SVG Export Plug-In . SVG Version: 6.00 Build 0)  -->
<!DOCTYPE svg PUBLIC "-//W3C//DTD SVG 1.1//EN" "http://www.w3.org/Graphics/SVG/1.1/DTD/svg11.dtd">
<svg version="1.1" id="Layer_1" xmlns="http://www.w3.org/2000/svg" xmlns:xlink="http://www.w3.org/1999/xlink" x="0px" y="0px"
	 viewBox="0 0 447.1 74" enable-background="new 0 0 447.1 74" xml:space="preserve">
<g>
	<path fill="#FFFFFF" d="M63.3,49.1l-4.8,22.5h-3.2c-1.3-4-3.3-7.9-6-11.6c-2.8-3.8-5.9-6.9-9.4-9.3c-2.3,3.6-4.9,6.8-7.7,9.6
		s-5.9,5.3-9.1,7.3s-6.5,3.6-10,4.7S6.3,74,2.9,74C2,74,1,73.9,0,73.7l1.6-3.9c1.8,0.2,3.1,0.3,4.1,0.3c9.3,0,17.5-3.6,24.8-10.9
		c1.5-1.5,3-3.2,4.5-5.2c1.5-1.9,3.1-4.2,4.8-6.8c3.7-5.8,6.8-11.2,9.4-16.2l4.8-9.2c3.8-7.2,6.7-12.1,8.7-14.7c2-2.6,4-3.8,6-3.8
		c0.6,0,1.2,0.1,1.7,0.4c0.5,0.3,0.9,0.7,1.1,1.2C71.9,5.5,72,6.1,72,6.8c0,0.5-0.1,1.2-0.3,2.1c-0.2,1.2-0.3,1.9-0.3,2l-7.8,36.5
		h3.6l-0.4,1.7H63.3z M58.6,49.1H40.8l0.2,0.2c3,2.3,5.6,4.7,7.8,7.1c2.2,2.4,4.3,5.3,6.3,8.7L58.6,49.1z M42.2,47.3h16.7l7.2-34.5
		c0.2-1.1,0.4-1.7,0.4-1.7c0.2-0.7,0.3-1.3,0.3-1.8c0-0.8-0.4-1.3-1.1-1.3c-0.9,0-2,1-3.3,2.9c-1.3,1.9-3.5,5.9-6.7,11.9
		c-0.5,0.9-1.4,2.8-2.9,5.5c-1.2,2.2-1.9,3.4-2,3.7l-4.9,8.9C43.9,44.5,42.6,46.7,42.2,47.3z"/>
	<path fill="#FFFFFF" d="M99.3,41.5l-4.8,18.6c-0.5,2-0.8,3.6-0.8,4.8c0,1,0.2,1.9,0.7,2.6c0.4,0.7,1,1.1,1.6,1.1
		c1,0,2.6-1.2,4.9-3.6l0.7,0.7l-0.6,0.7c-1.8,2.1-3.2,3.5-4.1,4.3S95.1,72,94.4,72c-1.1,0-2-0.6-2.8-1.7c-0.8-1.1-1.2-2.4-1.2-3.9
		c0-1.1,0.4-3.5,1.2-7.4l0.4-1.9c-1.3,2.9-2.9,5.7-5,8.4c-3.5,4.5-6.9,6.7-10.1,6.7c-1.9,0-3.5-0.7-4.6-2.1
		c-1.1-1.4-1.7-3.2-1.7-5.6c0-3.2,0.9-6.5,2.7-10c1.8-3.5,4.1-6.4,6.8-8.6c2.7-2.3,5.3-3.4,7.8-3.4c2.7,0,4.7,1,6,2.9l0.6-1.9
		L99.3,41.5z M93.4,48c-0.4-1.3-1.1-2.3-2.1-3c-1-0.7-2.1-1.1-3.3-1.1c-1.5,0-3.1,0.7-4.7,2.1c-1.7,1.4-3.2,3.3-4.6,5.7
		c-1.1,1.9-2,4.1-2.7,6.4c-0.7,2.3-1.1,4.3-1.1,5.8c0,1.7,0.3,3.1,1,4.1c0.7,1,1.6,1.5,2.8,1.5c1.6,0,3.2-0.7,4.9-2.2
		c1.7-1.5,3.4-3.5,5-6.2c1-1.6,1.8-3.1,2.4-4.7c0.6-1.6,1.2-3.7,1.9-6.5L93.4,48z"/>
	<path fill="#FFFFFF" d="M104.5,57.1c2.9-3.5,4.9-6.8,5.8-9.9c-2.7-1.5-4.1-3.7-4.1-6.6c0-1.4,0.3-2.5,1-3.3
		c0.6-0.8,1.5-1.3,2.4-1.3c1,0,1.8,0.5,2.5,1.4c0.6,0.9,1,2.1,1,3.6c0,1-0.2,2.2-0.6,3.5c0.9,0.2,1.7,0.4,2.5,0.4
		c2.1,0,3.8-0.6,5.2-1.8h2.4l-0.4,0.7c-2.4,4.5-4.4,8.9-6,13.2s-2.4,7.5-2.4,9.7c0,0.8,0.2,1.4,0.6,2c0.4,0.5,0.9,0.8,1.5,0.8
		c1.4,0,3.6-1.5,6.7-4.4l0.8,0.9c-0.9,1-2.4,2.4-4.4,3.9c-1.8,1.4-3.5,2.1-5,2.1c-1.3,0-2.4-0.4-3.1-1.3s-1.1-2.1-1.1-3.6
		c0-2.5,1-5.8,2.9-9.6c0.7-1.5,1.6-3.1,2.7-5c1.1-1.9,2.5-4.1,4.2-6.7l0.5-0.7c-1.1,1-2.2,1.7-3.2,2.2c-1,0.4-2.2,0.6-3.5,0.6
		c-0.6,0-1.3-0.1-1.9-0.3c-1.1,3.3-3.1,6.7-6.1,10.3L104.5,57.1z M111.4,44.2c0.1-0.8,0.2-1.6,0.2-2.1c0-1.2-0.2-2.1-0.6-2.8
		c-0.4-0.7-0.9-1-1.5-1c-0.3,0-0.6,0.2-0.9,0.5c-0.3,0.3-0.4,0.7-0.4,1.2C108.3,41.6,109.3,43,111.4,44.2z"/>
	<path fill="#FFFFFF" d="M163.8,0l-13.5,58.6c-0.7,3.1-1.1,5.3-1.1,6.5c0,1.1,0.2,2,0.6,2.6c0.4,0.7,0.9,1,1.6,1
		c0.9,0,1.9-0.7,3.2-2l1.5-1.5c0,0,0.1-0.1,0.1-0.1c0,0,0.1-0.1,0.2-0.1l0.8,0.7l-0.4,0.5c-1.3,1.4-1.9,2.2-2,2.2l-1.7,1.7
		c-0.8,0.8-1.5,1.4-1.9,1.6c-0.4,0.2-0.8,0.3-1.3,0.3c-1.1,0-2-0.6-2.8-1.7c-0.7-1.2-1.1-2.5-1.1-4c0-0.9,0.2-2.5,0.7-4.8l0.6-2.9
		c-0.9,2.1-2.3,4.5-4.2,7c-3.4,4.4-6.7,6.6-10,6.6c-1.9,0-3.5-0.7-4.6-2.1c-1.1-1.4-1.7-3.3-1.7-5.7c0-3.4,0.9-6.7,2.6-10.2
		c1.8-3.4,4-6.3,6.7-8.5c2.7-2.2,5.4-3.4,8.2-3.4c2,0,3.9,0.6,5.6,1.8l8.3-41.5L163.8,0z M149.6,46.6c-0.3-0.9-0.9-1.7-1.9-2.2
		c-0.9-0.6-2-0.8-3-0.8c-1.6,0-3.2,0.7-4.9,2.1s-3.3,3.4-4.7,6c-1.1,1.9-2,4-2.7,6.3c-0.7,2.3-1,4.4-1,6.2c0,1.6,0.3,2.9,1,3.9
		c0.7,1,1.7,1.5,2.9,1.5c1.4,0,3-0.7,4.6-2.2c1.6-1.5,3.3-3.6,5-6.3c1.1-1.9,2-3.8,2.6-5.8c0.8-2.6,1.3-4.6,1.7-6.2L149.6,46.6z"/>
	<path fill="#FFFFFF" d="M161.4,43.9l4.6-2.1v1.3c0.1,4.9,0.4,10.1,0.9,15.6c0.3,2.8,0.5,5,0.7,6.3s0.4,2.3,0.7,2.8
		c0.3,0.5,0.6,0.7,1.1,0.7c1.3,0,3.5-2.4,6.7-7.2c2.9-4.2,4.3-8.1,4.3-11.6c0-1.3-0.2-2.3-0.5-3.1c-0.3-0.8-0.9-1.7-1.7-2.5l3.8-3.6
		c1.2,1.6,1.8,3.5,1.8,5.7c0,4.5-2.7,10.4-8,17.8c-1.6,2.2-3.4,4.2-5.2,6c-0.8,0.8-1.5,1.3-2.1,1.7c-0.5,0.3-1,0.5-1.5,0.5
		c-0.8,0-1.4-0.3-1.8-1c-0.4-0.6-0.7-1.9-0.9-3.7L161.4,43.9z"/>
	<path fill="#FFFFFF" d="M215.2,41.5l-4.8,18.6c-0.5,2-0.8,3.6-0.8,4.8c0,1,0.2,1.9,0.7,2.6c0.4,0.7,1,1.1,1.6,1.1
		c1,0,2.6-1.2,4.9-3.6l0.7,0.7l-0.6,0.7c-1.8,2.1-3.2,3.5-4.1,4.3S211,72,210.3,72c-1.1,0-2-0.6-2.8-1.7c-0.8-1.1-1.2-2.4-1.2-3.9
		c0-1.1,0.4-3.5,1.2-7.4l0.4-1.9c-1.3,2.9-2.9,5.7-5,8.4c-3.5,4.5-6.9,6.7-10.1,6.7c-1.9,0-3.5-0.7-4.6-2.1
		c-1.1-1.4-1.7-3.2-1.7-5.6c0-3.2,0.9-6.5,2.7-10c1.8-3.5,4.1-6.4,6.8-8.6c2.7-2.3,5.3-3.4,7.8-3.4c2.7,0,4.7,1,6,2.9l0.6-1.9
		L215.2,41.5z M209.4,48c-0.4-1.3-1.1-2.3-2.1-3c-1-0.7-2.1-1.1-3.3-1.1c-1.5,0-3.1,0.7-4.7,2.1c-1.7,1.4-3.2,3.3-4.6,5.7
		c-1.1,1.9-2,4.1-2.7,6.4c-0.7,2.3-1.1,4.3-1.1,5.8c0,1.7,0.3,3.1,1,4.1c0.7,1,1.6,1.5,2.8,1.5c1.6,0,3.2-0.7,4.9-2.2
		c1.7-1.5,3.4-3.5,5-6.2c1-1.6,1.8-3.1,2.4-4.7c0.6-1.6,1.2-3.7,1.9-6.5L209.4,48z"/>
	<path fill="#FFFFFF" d="M220.4,57.1c2.9-3.5,4.9-6.8,5.8-9.9c-2.7-1.5-4.1-3.7-4.1-6.6c0-1.4,0.3-2.5,1-3.3
		c0.6-0.8,1.5-1.3,2.4-1.3c1,0,1.8,0.5,2.5,1.4c0.6,0.9,1,2.1,1,3.6c0,1-0.2,2.2-0.6,3.5c0.9,0.2,1.7,0.4,2.5,0.4
		c2.1,0,3.8-0.6,5.2-1.8h2.4l-0.4,0.7c-2.4,4.5-4.4,8.9-6,13.2s-2.4,7.5-2.4,9.7c0,0.8,0.2,1.4,0.6,2c0.4,0.5,0.9,0.8,1.5,0.8
		c1.4,0,3.6-1.5,6.7-4.4l0.8,0.9c-0.9,1-2.4,2.4-4.4,3.9c-1.8,1.4-3.5,2.1-5,2.1c-1.3,0-2.4-0.4-3.1-1.3s-1.1-2.1-1.1-3.6
		c0-2.5,1-5.8,2.9-9.6c0.7-1.5,1.6-3.1,2.7-5c1.1-1.9,2.5-4.1,4.2-6.7l0.5-0.7c-1.1,1-2.2,1.7-3.2,2.2c-1,0.4-2.2,0.6-3.5,0.6
		c-0.6,0-1.3-0.1-1.9-0.3c-1.1,3.3-3.1,6.7-6.1,10.3L220.4,57.1z M227.3,44.2c0.1-0.8,0.2-1.6,0.2-2.1c0-1.2-0.2-2.1-0.6-2.8
		c-0.4-0.7-0.9-1-1.5-1c-0.3,0-0.6,0.2-0.9,0.5c-0.3,0.3-0.4,0.7-0.4,1.2C224.2,41.6,225.2,43,227.3,44.2z"/>
	<path fill="#FFFFFF" d="M261.8,0L248,60.1c0.8-1.8,1.7-3.6,2.8-5.3c1.1-1.7,2.3-3.3,3.7-5c1.4-1.6,2.7-2.9,4-3.9
		c1.7-1.3,3.3-2.3,5-2.9c1.7-0.6,3.6-1,5.7-1.1l-0.9,4.1c-1-0.2-1.8-0.3-2.3-0.3c-4,0-7.7,2-11.2,6c1.4,3.7,2.9,7.1,4.4,10.1
		c0.9,1.7,1.7,3.1,2.3,4.1c0.7,1,1.3,1.8,1.8,2.3c0.6,0.5,1.1,0.7,1.7,0.7c1.3,0,2.9-1,4.9-3.1l0.4-0.5l0.7,0.8
		c-3.4,4.1-5.9,6.2-7.5,6.2c-1,0-2-0.5-2.9-1.4s-2-2.5-3.2-4.7c-2.1-3.9-3.9-7.6-5.2-11.1c-3.2,5.2-5.2,10.5-6.1,15.9l-3.3,1.1
		l13.6-69.4L261.8,0z"/>
	<path fill="#FFFFFF" d="M291,70.2l2.8-5.1c5.7,3.1,11.3,4.7,16.7,4.7c3.6,0,6.9-0.7,9.8-2c3-1.3,5.3-3.1,7-5.3
		c1.7-2.3,2.6-4.7,2.6-7.3c0-2.6-0.8-4.9-2.3-7c-1.6-2-4.4-4.4-8.4-7.1c-4-2.6-6.4-4.3-7.2-4.9s-2-1.5-3.4-2.6
		c-2.5-2.2-3.7-4.7-3.7-7.7c0-5.3,3.5-10.4,10.4-15.3c1.9-1.4,4.1-2.6,6.6-3.8s4.9-2,7.3-2.5c2.4-0.6,4.7-0.9,6.8-0.9
		c3.1,0,5.5,0.6,7.3,1.7c1.8,1.2,2.6,2.8,2.6,4.8c0,2.5-1.1,5.3-3.2,8.2s-5,5.6-8.7,8l-4.1-2.3c2.5-1.7,4.6-3.4,6.3-5.1
		c1.7-1.7,3.1-3.3,4-5c0.9-1.6,1.4-3.1,1.4-4.4c0-0.9-0.3-1.7-0.8-2.3c-0.5-0.6-1.2-1.1-2.2-1.5c-0.9-0.3-2.1-0.5-3.6-0.5
		c-2.6,0-5.5,0.5-8.5,1.5c-3,1-5.9,2.4-8.6,4.1c-6,3.8-8.9,7.9-8.9,12.5c0,1.3,0.4,2.5,1.1,3.6c0.7,1.1,2,2.4,3.7,3.8
		s4.4,3.2,7.8,5.5c2.5,1.7,4.5,3,5.8,4.1c1.3,1,2.4,2.2,3.2,3.3c1.9,2.4,2.8,5.1,2.8,8.1c0,2.3-0.6,4.6-1.8,7
		c-1.2,2.4-2.9,4.6-5.1,6.7c-5.1,4.8-12.3,7.3-21.4,7.3C299.2,72.8,294.5,71.9,291,70.2z"/>
	<path fill="#FFFFFF" d="M340.1,72.1l13.5-69.5L359,0l-14.1,61.9c0.1-0.2,0.2-0.4,0.2-0.5l1.2-2.6c2-4.5,4.5-8.5,7.5-11.8
		c2.8-3.1,5.5-4.6,7.9-4.6c1.3,0,2.3,0.4,3.1,1.2c0.8,0.8,1.2,1.9,1.2,3.3c0,0.8-0.2,1.9-0.6,3.3l-0.5,2.1l-1.6,6.2l-0.5,2
		c-0.5,2-0.8,3.6-0.8,4.7c0,1.1,0.2,2,0.6,2.6c0.4,0.7,0.9,1,1.5,1c1,0,2.7-1.3,5-3.8l0.8,0.7l-0.5,0.6c-1.9,2.3-3.4,3.8-4.3,4.6
		c-0.9,0.8-1.8,1.2-2.5,1.2c-1,0-1.9-0.6-2.7-1.7c-0.7-1.1-1.1-2.4-1.1-3.9c0-0.9,0.2-2.5,0.7-4.8l1.9-10.8c0.3-1.6,0.5-2.8,0.5-3.6
		c0-0.7-0.2-1.3-0.6-1.6c-0.4-0.4-0.9-0.6-1.5-0.6c-1.3,0-2.7,0.7-4.3,2.2s-3.3,3.5-4.9,6.1c-1.6,2.6-3.1,5.4-4.3,8.4
		c-1.2,3-2.1,6-2.7,9.1L340.1,72.1z"/>
	<path fill="#FFFFFF" d="M372.7,61.8c0-3,0.8-6.1,2.5-9.1c1.6-3,3.8-5.5,6.4-7.4c2.6-1.9,5.3-2.8,8-2.8c2.8,0,5.1,0.9,6.9,2.8
		c1.7,1.9,2.6,4.3,2.6,7.3c0,3.2-0.8,6.4-2.4,9.4c-1.6,3-3.7,5.5-6.3,7.5c-2.6,1.9-5.3,2.9-7.9,2.9c-2.9,0-5.2-1-7-2.9
		C373.6,67.5,372.7,65,372.7,61.8z M394.5,50.6c0-2-0.5-3.7-1.5-5c-1-1.3-2.3-2-3.8-2c-1.4,0-2.8,0.5-4.1,1.4
		c-1.3,0.9-2.5,2.3-3.6,4c-1.2,2-2.2,4.4-3,7.1c-0.8,2.7-1.2,5.1-1.2,7.2c0,2.5,0.5,4.4,1.5,5.8c1,1.4,2.4,2,4.2,2
		c2.9,0,5.5-2,7.8-6.1c1.2-2.1,2.1-4.5,2.7-7.1C394.1,55.3,394.5,52.9,394.5,50.6z"/>
	<path fill="#FFFFFF" d="M424,63.7l0.9,0.8c-2.1,2.8-4.1,4.8-6.1,6c-2,1.2-4.1,1.9-6.4,1.9c-2.7,0-4.9-0.9-6.6-2.7s-2.5-4.2-2.5-7.3
		c0-3,0.8-6.1,2.4-9.3c1.6-3.1,3.6-5.7,6-7.8c2.4-2,4.8-3.1,7.2-3.1c1.4,0,2.5,0.4,3.4,1.2c0.9,0.8,1.3,1.9,1.3,3.1
		c0,2.6-1.4,5.2-4.3,7.8c-2.8,2.6-6.7,4.8-11.6,6.7c0,0.3-0.1,0.6-0.1,0.9c0,2.3,0.6,4.2,1.9,5.7c1.3,1.5,2.9,2.2,5,2.2
		c1.6,0,3.1-0.5,4.6-1.5C420.7,67.4,422.3,65.8,424,63.7z M407.7,59.8c3.7-1.6,6.5-3.4,8.4-5.4c1.3-1.4,2.4-2.8,3.2-4.4
		c0.8-1.6,1.2-3,1.2-4.2c0-1.6-0.7-2.4-2.2-2.4c-2.2,0-4.4,1.7-6.7,5.2C409.5,52.1,408.1,55.8,407.7,59.8z"/>
	<path fill="#FFFFFF" d="M425.6,68.3l2.8-3.4c1.5,3.5,3.9,5.3,7.1,5.3c1.7,0,3.1-0.5,4.3-1.7c1.2-1.1,1.8-2.4,1.8-3.8
		c0-1-0.3-1.9-0.9-2.7c-0.6-0.7-1.9-2-4.1-3.8c-2-1.6-3.3-2.9-4-3.8c-0.7-0.9-1-2-1-3.2c0-1.6,0.5-3.1,1.4-4.4
		c0.9-1.4,2.2-2.4,3.7-3.3c1.6-0.8,3.2-1.2,4.9-1.2c1.5,0,2.8,0.4,3.8,1.1c1,0.8,1.5,1.7,1.5,2.9c0,1.6-0.7,2.6-2,3.2
		c-0.2-1.6-0.8-2.8-1.8-3.7c-1-0.9-2.3-1.3-3.8-1.3c-1.4,0-2.6,0.4-3.6,1.3c-1,0.9-1.5,1.9-1.5,3.1c0,1.4,0.9,2.8,2.6,4.2l2.9,2.4
		c2.9,2.3,4.3,4.6,4.3,7c0,1.8-0.5,3.4-1.5,5c-1,1.5-2.4,2.8-4.1,3.7c-1.7,0.9-3.5,1.4-5.4,1.4C430.2,72.5,427.7,71.1,425.6,68.3z"
		/>
</g>
</svg>
