<?xml version="1.0" encoding="utf-8"?>
<!-- Generator: Adobe Illustrator 17.1.0, SVG Export Plug-In . SVG Version: 6.00 Build 0)  -->
<!DOCTYPE svg PUBLIC "-//W3C//DTD SVG 1.1//EN" "http://www.w3.org/Graphics/SVG/1.1/DTD/svg11.dtd">
<svg version="1.1" id="Layer_1" xmlns="http://www.w3.org/2000/svg" xmlns:xlink="http://www.w3.org/1999/xlink" x="0px" y="0px"
	 viewBox="25.5 58.4 586.5 586.5" enable-background="new 25.5 58.4 586.5 586.5" xml:space="preserve">
<path fill="#4C0707" d="M318.8,58.4c-161.9,0-293.2,131.3-293.2,293.2s131.3,293.2,293.2,293.2S612,513.5,612,351.6
	S480.7,58.4,318.8,58.4z M272.2,379.5c-10.4,75.7,11.4,86.1,80.9,78.8c36.3,1,73.6,1,110,3.1c28,2.1,48.8,25.9,49.8,55
	c1,27-19.7,57.1-45.6,60.2c-62.2,5.2-124.5,10.4-185.7-4.1C210,554.8,154,484.3,151.9,410.6c-2.1-75.7-1-151.4-1-227.2
	c0-13.5-1-27,2.1-39.4c6.2-32.2,34.2-50.8,67.4-47.7c29,2.1,48.8,23.9,50.8,57.1c1,13.5,2.1,28,2.1,41.5c-1,18.7,9.3,22.8,24.9,22.8
	c49.8,0,98.5,0,148.3,0c33.2,0,53.9,13.5,63.3,37.3c9.3,25.9,7.3,50.8-17.6,73.6c-3.1,3.1-11.4,7.3-11.4,7.3
	c-61.2,1-122.4,2.1-182.6,3.1c-23.9,0-27,3.1-27,27C271.2,370.2,272.2,375.3,272.2,379.5z"/>
</svg>
