<?xml version="1.0" encoding="utf-8"?>
<!-- Generator: Adobe Illustrator 17.1.0, SVG Export Plug-In . SVG Version: 6.00 Build 0)  -->
<!DOCTYPE svg PUBLIC "-//W3C//DTD SVG 1.1//EN" "http://www.w3.org/Graphics/SVG/1.1/DTD/svg11.dtd">
<svg version="1.1" id="Layer_1" xmlns="http://www.w3.org/2000/svg" xmlns:xlink="http://www.w3.org/1999/xlink" x="0px" y="0px"
	 viewBox="83.1 139.4 586.5 586.5" enable-background="new 83.1 139.4 586.5 586.5" xml:space="preserve">
<g>
	<path fill="#4C0707" d="M516.5,510.3c-0.9-0.9-9.4-0.9-10.4,0c-3.8,8.5-5.7,17-8.5,27.3h27.9C522.1,527.6,520.2,518.5,516.5,510.3z
		"/>
	<path fill="#4C0707" d="M378.1,266.3c-0.9-4.7-6.6-9.4-10.4-13.2c-3.8,4.7-11.3,8.5-11.3,14.1c-0.9,21.7-0.9,44.3,0,65.9
		c0,4.7,6.6,8.5,10.4,12.2c3.8-4.7,9.4-8.5,10.4-13.2c1.9-11.3,0.9-22.6,0.9-33.9C378.1,288,379,276.7,378.1,266.3z"/>
	<path fill="#4C0707" d="M418.6,509.4c-2.8,3.8-8.5,7.5-9.4,12.2c-1.9,11.3-0.9,22.6-0.9,33.9c0,11.3-0.9,22.6,0,33.9
		c0.9,4.7,6.6,8.5,10.4,13.2c3.8-3.8,10.4-6.6,11.3-10.4c0.9-24.5,0.9-48,0-72.5C429.9,515.9,422.3,512.2,418.6,509.4z"/>
	<path fill="#4C0707" d="M376.3,139.4c-161.9,0-293.2,131.3-293.2,293.2s131.3,293.2,293.2,293.2s293.2-131.3,293.2-293.2
		S538.3,139.4,376.3,139.4z M244.3,185.3c21.7-0.9,21.7-0.9,27.3,19.8c3.8,15.1,8.5,30.1,15.1,45.2c3.8-15.1,8.5-30.1,12.2-45.2
		c5.7-22.6,5.7-22.6,32-18.8c-16,58.4-42.4,114.9-29.2,178h-30.1c8.5-62.2-11.3-119.6-33.9-177.1
		C241.5,186.2,242.4,185.3,244.3,185.3z M286.7,467h-28.3v155.4h-28.3V469.8c-11.3-1.9-21.7-1.9-28.3-6.6
		c-3.8-2.8-0.9-14.1-0.9-22.6h85.7V467z M361.1,623.3c-10.4-1.9-22.6,7.5-25.4-10.4c-6.6,3.8-13.2,8.5-20.7,11.3
		c-12.2,4.7-23.6-0.9-23.6-14.1c-0.9-40.5,0-81,0-122.5h24.5c0,15.1,0,30.1,0,44.3c0,17.9-0.9,36.7,0,54.6c0,4.7,3.8,10.4,6.6,15.1
		c4.7-4.7,13.2-9.4,14.1-15.1c1.9-12.2,0.9-24.5,0.9-37.7c-0.9-19.8-0.9-39.6-0.9-61.2h24.5V623.3z M366.8,368.1
		c-19.8,0-33.9-12.2-34.9-33c-0.9-24.5-0.9-48,0-72.5c0.9-20.7,15.1-33,34.9-33s33,12.2,34.9,33c0.9,12.2,0,24.5,0,36.7
		c0,11.3,0.9,23.6,0,34.9C399.7,354.9,386.5,368.1,366.8,368.1z M454.4,591.3c0,12.2,0,25.4-13.2,31.1c-12.2,5.7-22.6-0.9-32-9.4
		c-3.8,16-16,8.5-26.4,9.4V440.6h0.9h24.5v55.6c3.8-2.8,5.7-3.8,6.6-4.7c19.8-14.1,38.6-6.6,39.6,17.9
		C456.2,536.7,455.3,564,454.4,591.3z M466.6,355.8c-5.7,3.8-11.3,7.5-17,10.4c-14.1,6.6-26.4,0-26.4-15.1c-0.9-39.6,0-79.1,0-119.6
		h23.6c0,6.6,0,13.2,0,19.8c0,26.4,0,51.8,0,78.2c0,4.7,3.8,10.4,6.6,15.1c4.7-4.7,13.2-9.4,14.1-15.1c1.9-16,0.9-32,0.9-48
		c0-16,0-32,0-49H492v132.8C482.6,364.3,471.3,373.7,466.6,355.8z M520.3,624.3c-22.6,4.7-42.4-8.5-45.2-32c-1.9-24.5-1.9-49,0-73.5
		c0.9-21.7,16-33,36.7-33c19.8,0,33.9,11.3,35.8,33c0.9,12.2,0,25.4,0,41.4h-48c0,10.4-0.9,18.8,0,28.3c0.9,7.5,2.8,16,12.2,13.2
		c4.7-0.9,7.5-8.5,10.4-14.1c0.9-2.8,0.9-5.7,0.9-10.4h23.6C552.3,600.7,542,620.5,520.3,624.3z"/>
</g>
</svg>
